<mxfile host="app.diagrams.net" agent="Mozilla/5.0 (Windows NT 10.0; Win64; x64) AppleWebKit/537.36 (KHTML, like Gecko) Chrome/129.0.0.0 Safari/537.36" version="24.7.17">
  <diagram name="Page-1" id="o_aN54nh0k4acvwN7k0v">
    <mxGraphModel dx="1050" dy="522" grid="1" gridSize="10" guides="1" tooltips="1" connect="1" arrows="1" fold="1" page="1" pageScale="1" pageWidth="1169" pageHeight="827" math="0" shadow="0">
      <root>
        <mxCell id="0" />
        <mxCell id="1" parent="0" />
        <object placeholders="1" c4Name="Servidor Local" c4Type="" c4Application="" label="&lt;font style=&quot;font-size: 16px&quot;&gt;&lt;b&gt;&lt;div style=&quot;text-align: left&quot;&gt;%c4Name%&lt;/div&gt;&lt;/b&gt;&lt;/font&gt;&lt;div style=&quot;text-align: left&quot;&gt;[%c4Application%]&lt;/div&gt;" id="XNGxjiH-8ZBxWoO-YDON-1">
          <mxCell style="rounded=1;fontSize=11;whiteSpace=wrap;html=1;dashed=1;arcSize=20;fillColor=none;strokeColor=#666666;fontColor=#333333;labelBackgroundColor=none;align=left;verticalAlign=bottom;labelBorderColor=none;spacingTop=0;spacing=10;dashPattern=8 4;metaEdit=1;rotatable=0;perimeter=rectanglePerimeter;noLabel=0;labelPadding=0;allowArrows=0;connectable=0;expand=0;recursiveResize=0;editable=1;pointerEvents=0;absoluteArcSize=1;points=[[0.25,0,0],[0.5,0,0],[0.75,0,0],[1,0.25,0],[1,0.5,0],[1,0.75,0],[0.75,1,0],[0.5,1,0],[0.25,1,0],[0,0.75,0],[0,0.5,0],[0,0.25,0]];" vertex="1" parent="1">
            <mxGeometry x="110" y="50" width="850" height="280" as="geometry" />
          </mxCell>
        </object>
        <mxCell id="XNGxjiH-8ZBxWoO-YDON-5" value="" style="edgeStyle=orthogonalEdgeStyle;rounded=0;orthogonalLoop=1;jettySize=auto;html=1;dashed=1;dashPattern=8 8;" edge="1" parent="1" source="XNGxjiH-8ZBxWoO-YDON-2" target="XNGxjiH-8ZBxWoO-YDON-3">
          <mxGeometry relative="1" as="geometry" />
        </mxCell>
        <mxCell id="XNGxjiH-8ZBxWoO-YDON-6" value="Forwards requests to&lt;div&gt;[HTTPS]&lt;/div&gt;" style="edgeLabel;html=1;align=center;verticalAlign=middle;resizable=0;points=[];" vertex="1" connectable="0" parent="XNGxjiH-8ZBxWoO-YDON-5">
          <mxGeometry x="-0.1429" y="3" relative="1" as="geometry">
            <mxPoint as="offset" />
          </mxGeometry>
        </mxCell>
        <mxCell id="XNGxjiH-8ZBxWoO-YDON-2" value="Front-End&lt;div&gt;(HTML/CSS/JS)&lt;/div&gt;" style="rounded=1;whiteSpace=wrap;html=1;fillColor=#e1d5e7;strokeColor=#9673a6;" vertex="1" parent="1">
          <mxGeometry x="140" y="115" width="150" height="130" as="geometry" />
        </mxCell>
        <mxCell id="XNGxjiH-8ZBxWoO-YDON-3" value="Aplicação Web&amp;nbsp;&lt;div&gt;(Spring Boot)&lt;/div&gt;" style="rounded=1;whiteSpace=wrap;html=1;fillColor=#e1d5e7;strokeColor=#9673a6;" vertex="1" parent="1">
          <mxGeometry x="460" y="115" width="150" height="130" as="geometry" />
        </mxCell>
        <mxCell id="XNGxjiH-8ZBxWoO-YDON-4" value="Banco de dados&amp;nbsp;&lt;div&gt;(MySQL)&lt;/div&gt;" style="rounded=1;whiteSpace=wrap;html=1;fillColor=#e1d5e7;strokeColor=#9673a6;" vertex="1" parent="1">
          <mxGeometry x="780" y="115" width="150" height="130" as="geometry" />
        </mxCell>
        <mxCell id="XNGxjiH-8ZBxWoO-YDON-7" value="" style="edgeStyle=orthogonalEdgeStyle;rounded=0;orthogonalLoop=1;jettySize=auto;html=1;dashed=1;dashPattern=8 8;exitX=1;exitY=0.5;exitDx=0;exitDy=0;entryX=0;entryY=0.5;entryDx=0;entryDy=0;" edge="1" parent="1" source="XNGxjiH-8ZBxWoO-YDON-3" target="XNGxjiH-8ZBxWoO-YDON-4">
          <mxGeometry relative="1" as="geometry">
            <mxPoint x="300" y="190" as="sourcePoint" />
            <mxPoint x="515" y="190" as="targetPoint" />
          </mxGeometry>
        </mxCell>
        <mxCell id="XNGxjiH-8ZBxWoO-YDON-8" value="Reads from and writes to&amp;nbsp;&lt;div&gt;[MySQL]&lt;/div&gt;" style="edgeLabel;html=1;align=center;verticalAlign=middle;resizable=0;points=[];" vertex="1" connectable="0" parent="XNGxjiH-8ZBxWoO-YDON-7">
          <mxGeometry x="-0.1429" y="3" relative="1" as="geometry">
            <mxPoint as="offset" />
          </mxGeometry>
        </mxCell>
      </root>
    </mxGraphModel>
  </diagram>
</mxfile>
